# xmcd
#
# Track frame offsets: 
#        150
#        9339
#        20683
#        32105
#        42862
#        55273
#        70175
#        79681
#        92404
#        103245
#        113826
#        125924
#        135780
#        146869
#        158018
#        168531
#        181529
#        192101
#        204672
#        214028
#        223975
#        235752
#        244966
#        255644
#        267738
#        279519
#
# Disc length: 3871 seconds
#
# Revision: 3
# Processed by: cddbd v1.5.2PL0 Copyright (c) Steve Scherf et al.
# Submitted via: ExactAudioCopy v1.1
#
DISCID=7b0f1d1a
DTITLE=Lefty Frizzell - 3 Classic Albums Plus Singles_CD3
DYEAR=2015
DGENRE=Country
TTITLE0=If You've Got The Money, I've Got The Time
TTITLE1=Mom And Dad's Waltz
TTITLE2=Signed, Sealed And Delivered
TTITLE3=Nobody Knows But Me
TTITLE4=Release Me
TTITLE5=Why Should I Be Lonely
TTITLE6=Always Late (With Your Kisses)
TTITLE7=I Love You A Thousands Ways
TTITLE8=My Bucket's Got A Hole In It
TTITLE9=It Is Only That You're Lonely
TTITLE10=I Want To Be With You Always
TTITLE11=If You're Ever Lonely Darling
TTITLE12=Sweet Lies
TTITLE13=(I'm) Lost Between Right Or Wrong
TTITLE14=Your Tomorrow's Will Never Come
TTITLE15=It Gets Late So Early
TTITLE16=First To Have A Second Chance
TTITLE17=These Hands
TTITLE18=Promises (Promises Promises)
TTITLE19=Today Is That Tomorrow
TTITLE20=The Waltz Of The Angels
TTITLE21=Just Can't Live That Fast (Anymore)
TTITLE22=Heart's Highway
TTITLE23=I'm A Boy Left Alone
TTITLE24=Lullaby Waltz
TTITLE25=Glad I Found You
EXTD=YEAR: 2015
EXTT0=
EXTT1=
EXTT2=
EXTT3=
EXTT4=
EXTT5=
EXTT6=
EXTT7=
EXTT8=
EXTT9=
EXTT10=
EXTT11=
EXTT12=
EXTT13=
EXTT14=
EXTT15=
EXTT16=
EXTT17=
EXTT18=
EXTT19=
EXTT20=
EXTT21=
EXTT22=
EXTT23=
EXTT24=
EXTT25=
PLAYORDER=
